<?xml version="1.0" standalone="no"?>
<!DOCTYPE svg PUBLIC "-//W3C//DTD SVG 20010904//EN"
 "http://www.w3.org/TR/2001/REC-SVG-20010904/DTD/svg10.dtd">
<svg version="1.0" xmlns="http://www.w3.org/2000/svg"
 width="600.000000pt" height="600.000000pt" viewBox="0 0 600.000000 600.000000"
 preserveAspectRatio="xMidYMid meet">
<metadata>
Created by potrace 1.11, written by Peter Selinger 2001-2013
</metadata>
<g transform="translate(0.000000,600.000000) scale(0.100000,-0.100000)"
fill="#000000" stroke="none">
<path d="M0 5250 l0 -750 250 0 250 0 0 500 0 500 500 0 500 0 0 250 0 250
-750 0 -750 0 0 -750z"/>
<path d="M2357 5143 c-2 -5 -3 -270 -3 -591 l1 -583 319 -320 c176 -175 322
-319 326 -319 3 0 150 144 326 320 l319 319 0 591 0 590 -642 0 c-353 0 -643
-3 -646 -7z"/>
<path d="M854 3641 c-2 -2 -4 -293 -4 -645 l0 -642 590 1 591 0 323 323 323
322 -321 322 -321 322 -588 1 c-324 0 -590 -2 -593 -4z"/>
<path d="M3967 3638 c-7 -4 -154 -149 -328 -323 l-316 -315 323 -323 323 -322
590 0 591 0 -2 645 -3 645 -583 0 c-321 0 -589 -3 -595 -7z"/>
<path d="M2675 2351 l-320 -319 0 -589 0 -588 645 -3 645 -2 0 591 0 590 -319
320 c-176 175 -322 319 -326 319 -3 0 -150 -144 -325 -319z"/>
<path d="M5500 1000 l0 -500 -500 0 -500 0 0 -250 0 -250 750 0 750 0 0 750 0
750 -250 0 -250 0 0 -500z"/>
</g>
</svg>
